<mxfile host="app.diagrams.net" modified="2024-03-04T22:07:55.856Z" agent="Mozilla/5.0 (Windows NT 10.0; Win64; x64) AppleWebKit/537.36 (KHTML, like Gecko) Chrome/122.0.0.0 Safari/537.36" etag="Df_XwPcWkxNXMy7J1Ojz" version="24.0.0" type="device">
  <diagram name="Page-1" id="V5yeXLDqnZCeBa1UQcHt">
    <mxGraphModel dx="2344" dy="134" grid="0" gridSize="10" guides="1" tooltips="1" connect="1" arrows="1" fold="1" page="1" pageScale="1" pageWidth="1700" pageHeight="1100" math="0" shadow="0">
      <root>
        <mxCell id="0" />
        <mxCell id="1" parent="0" />
        <mxCell id="ffzKgBnRtSAjInG-3fA--72" value="" style="endArrow=classic;html=1;rounded=0;strokeWidth=4;strokeColor=#82B366;entryX=0.303;entryY=0;entryDx=0;entryDy=0;entryPerimeter=0;" edge="1" parent="1" target="ffzKgBnRtSAjInG-3fA--1">
          <mxGeometry width="50" height="50" relative="1" as="geometry">
            <mxPoint x="860" y="1295" as="sourcePoint" />
            <mxPoint x="860" y="1385" as="targetPoint" />
            <Array as="points" />
          </mxGeometry>
        </mxCell>
        <mxCell id="ffzKgBnRtSAjInG-3fA--71" value="" style="endArrow=classic;html=1;rounded=0;exitX=0.658;exitY=-0.041;exitDx=0;exitDy=0;exitPerimeter=0;strokeWidth=4;strokeColor=#82B366;" edge="1" parent="1" source="ffzKgBnRtSAjInG-3fA--1">
          <mxGeometry width="50" height="50" relative="1" as="geometry">
            <mxPoint x="920" y="1385" as="sourcePoint" />
            <mxPoint x="940" y="1295" as="targetPoint" />
          </mxGeometry>
        </mxCell>
        <mxCell id="ffzKgBnRtSAjInG-3fA--53" value="" style="endArrow=classic;startArrow=classic;html=1;rounded=0;exitX=1;exitY=0.47;exitDx=0;exitDy=0;exitPerimeter=0;entryX=0;entryY=0.5;entryDx=0;entryDy=0;strokeWidth=4;strokeColor=#82B366;" edge="1" parent="1" source="ffzKgBnRtSAjInG-3fA--40" target="ffzKgBnRtSAjInG-3fA--39">
          <mxGeometry width="50" height="50" relative="1" as="geometry">
            <mxPoint x="1081.1" y="1585" as="sourcePoint" />
            <mxPoint x="831.1" y="1255" as="targetPoint" />
          </mxGeometry>
        </mxCell>
        <mxCell id="ffzKgBnRtSAjInG-3fA--1" value="&lt;font style=&quot;font-size: 25px;&quot;&gt;Demo App&lt;br&gt;Frontend&lt;br&gt;(React + Bootstrap)&lt;/font&gt;" style="rounded=1;whiteSpace=wrap;html=1;fillColor=#f5f5f5;fontColor=#333333;strokeColor=#666666;strokeWidth=3;" vertex="1" parent="1">
          <mxGeometry x="790.5" y="1395" width="229" height="132" as="geometry" />
        </mxCell>
        <mxCell id="ffzKgBnRtSAjInG-3fA--2" style="rounded=0;orthogonalLoop=1;jettySize=auto;html=1;startArrow=classic;startFill=1;fillColor=#f5f5f5;strokeColor=#666666;strokeWidth=4;entryX=1;entryY=0;entryDx=0;entryDy=0;exitX=0;exitY=1;exitDx=0;exitDy=0;" edge="1" parent="1" source="ffzKgBnRtSAjInG-3fA--4" target="ffzKgBnRtSAjInG-3fA--26">
          <mxGeometry relative="1" as="geometry">
            <mxPoint x="880" y="1685" as="targetPoint" />
            <mxPoint x="1410" y="1635" as="sourcePoint" />
          </mxGeometry>
        </mxCell>
        <mxCell id="ffzKgBnRtSAjInG-3fA--3" value="&lt;font style=&quot;font-size: 22px;&quot;&gt;Authorize&lt;/font&gt;" style="edgeLabel;html=1;align=center;verticalAlign=middle;resizable=0;points=[];" vertex="1" connectable="0" parent="ffzKgBnRtSAjInG-3fA--2">
          <mxGeometry x="-0.1058" y="3" relative="1" as="geometry">
            <mxPoint x="-1" as="offset" />
          </mxGeometry>
        </mxCell>
        <mxCell id="ffzKgBnRtSAjInG-3fA--4" value="&lt;span style=&quot;font-size: 26px;&quot;&gt;Demo App &lt;br&gt;Backend&lt;/span&gt;" style="rounded=1;whiteSpace=wrap;html=1;fillColor=#f5f5f5;fontColor=#333333;strokeColor=#666666;strokeWidth=3;" vertex="1" parent="1">
          <mxGeometry x="1241.04" y="1395" width="229" height="132" as="geometry" />
        </mxCell>
        <mxCell id="ffzKgBnRtSAjInG-3fA--8" value="&lt;font style=&quot;font-size: 20px;&quot;&gt;Actor&lt;/font&gt;" style="shape=umlActor;verticalLabelPosition=bottom;verticalAlign=top;html=1;outlineConnect=0;strokeWidth=5;fillColor=#f5f5f5;fontColor=#333333;strokeColor=#666666;" vertex="1" parent="1">
          <mxGeometry x="360" y="1715" width="80" height="150" as="geometry" />
        </mxCell>
        <mxCell id="ffzKgBnRtSAjInG-3fA--9" value="" style="endArrow=classic;startArrow=none;html=1;rounded=0;entryX=0;entryY=0.5;entryDx=0;entryDy=0;fillColor=#f5f5f5;strokeColor=#666666;strokeWidth=4;startFill=0;" edge="1" parent="1" source="ffzKgBnRtSAjInG-3fA--8" target="ffzKgBnRtSAjInG-3fA--26">
          <mxGeometry width="50" height="50" relative="1" as="geometry">
            <mxPoint x="510" y="1722" as="sourcePoint" />
            <mxPoint x="642.7999999999997" y="1554.66" as="targetPoint" />
          </mxGeometry>
        </mxCell>
        <mxCell id="ffzKgBnRtSAjInG-3fA--10" value="&lt;font style=&quot;font-size: 22px;&quot;&gt;1. Authenticate&lt;/font&gt;" style="edgeLabel;html=1;align=center;verticalAlign=middle;resizable=0;points=[];" vertex="1" connectable="0" parent="ffzKgBnRtSAjInG-3fA--9">
          <mxGeometry x="0.1931" relative="1" as="geometry">
            <mxPoint x="-29" as="offset" />
          </mxGeometry>
        </mxCell>
        <mxCell id="ffzKgBnRtSAjInG-3fA--11" value="" style="endArrow=classic;startArrow=none;html=1;rounded=0;entryX=0;entryY=0.5;entryDx=0;entryDy=0;fillColor=#f5f5f5;strokeColor=#666666;strokeWidth=4;startFill=0;exitX=1;exitY=0.3333333333333333;exitDx=0;exitDy=0;exitPerimeter=0;" edge="1" parent="1" target="ffzKgBnRtSAjInG-3fA--1" source="ffzKgBnRtSAjInG-3fA--8">
          <mxGeometry width="50" height="50" relative="1" as="geometry">
            <mxPoint x="392" y="1665.5" as="sourcePoint" />
            <mxPoint x="372" y="1735.5" as="targetPoint" />
          </mxGeometry>
        </mxCell>
        <mxCell id="ffzKgBnRtSAjInG-3fA--12" value="&lt;font style=&quot;font-size: 19px;&quot;&gt;Use Application&lt;/font&gt;" style="edgeLabel;html=1;align=center;verticalAlign=middle;resizable=0;points=[];" vertex="1" connectable="0" parent="ffzKgBnRtSAjInG-3fA--11">
          <mxGeometry x="0.1325" y="6" relative="1" as="geometry">
            <mxPoint x="5" y="7" as="offset" />
          </mxGeometry>
        </mxCell>
        <mxCell id="ffzKgBnRtSAjInG-3fA--19" value="&lt;font style=&quot;font-size: 22px;&quot;&gt;Postgre&lt;br&gt;SQL&lt;/font&gt;" style="shape=cylinder3;whiteSpace=wrap;html=1;boundedLbl=1;backgroundOutline=1;size=15;fillColor=#d5e8d4;strokeColor=#82b366;strokeWidth=3;" vertex="1" parent="1">
          <mxGeometry x="1358.04" y="1720" width="112" height="133" as="geometry" />
        </mxCell>
        <mxCell id="ffzKgBnRtSAjInG-3fA--20" value="" style="endArrow=classic;startArrow=none;html=1;rounded=0;entryX=0;entryY=0.5;entryDx=0;entryDy=0;entryPerimeter=0;startFill=0;strokeWidth=4;fillColor=#d5e8d4;strokeColor=#82b366;exitX=1;exitY=0.5;exitDx=0;exitDy=0;" edge="1" parent="1" source="ffzKgBnRtSAjInG-3fA--26" target="ffzKgBnRtSAjInG-3fA--19">
          <mxGeometry width="50" height="50" relative="1" as="geometry">
            <mxPoint x="987" y="1788.5" as="sourcePoint" />
            <mxPoint x="1396" y="1874.5" as="targetPoint" />
          </mxGeometry>
        </mxCell>
        <mxCell id="ffzKgBnRtSAjInG-3fA--21" value="&lt;font style=&quot;font-size: 22px;&quot;&gt;6. Obtain Public&amp;nbsp;&lt;br&gt;&lt;/font&gt;&lt;div&gt;&lt;span style=&quot;font-size: 22px;&quot;&gt;Key&lt;/span&gt;&lt;/div&gt;" style="edgeLabel;html=1;align=center;verticalAlign=middle;resizable=0;points=[];" vertex="1" connectable="0" parent="ffzKgBnRtSAjInG-3fA--20">
          <mxGeometry x="-0.104" y="2" relative="1" as="geometry">
            <mxPoint x="5" y="2" as="offset" />
          </mxGeometry>
        </mxCell>
        <mxCell id="ffzKgBnRtSAjInG-3fA--23" style="edgeStyle=orthogonalEdgeStyle;rounded=0;orthogonalLoop=1;jettySize=auto;html=1;strokeWidth=4;startArrow=none;startFill=0;fillColor=#f5f5f5;strokeColor=#666666;exitX=1;exitY=0.5;exitDx=0;exitDy=0;entryX=0;entryY=0.5;entryDx=0;entryDy=0;" edge="1" parent="1" source="ffzKgBnRtSAjInG-3fA--1" target="ffzKgBnRtSAjInG-3fA--4">
          <mxGeometry relative="1" as="geometry">
            <mxPoint x="803.5" y="1536.5" as="sourcePoint" />
          </mxGeometry>
        </mxCell>
        <mxCell id="ffzKgBnRtSAjInG-3fA--24" value="&lt;font style=&quot;font-size: 17px;&quot;&gt;Access App &lt;br&gt;Resources&lt;/font&gt;" style="edgeLabel;html=1;align=center;verticalAlign=middle;resizable=0;points=[];" vertex="1" connectable="0" parent="ffzKgBnRtSAjInG-3fA--23">
          <mxGeometry x="-0.2269" y="-1" relative="1" as="geometry">
            <mxPoint x="18" y="-1" as="offset" />
          </mxGeometry>
        </mxCell>
        <mxCell id="ffzKgBnRtSAjInG-3fA--25" value="" style="group" vertex="1" connectable="0" parent="1">
          <mxGeometry x="780" y="1720" width="250" height="140" as="geometry" />
        </mxCell>
        <mxCell id="ffzKgBnRtSAjInG-3fA--26" value="&lt;font style=&quot;font-size: 26px;&quot;&gt;KeyCloak&lt;/font&gt;" style="rounded=1;whiteSpace=wrap;html=1;strokeWidth=3;fillColor=#f5f5f5;fontColor=#333333;strokeColor=#666666;" vertex="1" parent="ffzKgBnRtSAjInG-3fA--25">
          <mxGeometry width="250" height="140" as="geometry" />
        </mxCell>
        <mxCell id="ffzKgBnRtSAjInG-3fA--27" value="" style="image;aspect=fixed;perimeter=ellipsePerimeter;html=1;align=center;shadow=0;dashed=0;spacingTop=3;image=img/lib/active_directory/active_directory.svg;container=0;" vertex="1" parent="ffzKgBnRtSAjInG-3fA--25">
          <mxGeometry x="9" y="5" width="57.06" height="48.5" as="geometry" />
        </mxCell>
        <mxCell id="ffzKgBnRtSAjInG-3fA--60" style="edgeStyle=orthogonalEdgeStyle;rounded=0;orthogonalLoop=1;jettySize=auto;html=1;exitX=0.5;exitY=1;exitDx=0;exitDy=0;strokeWidth=4;strokeColor=#82B366;" edge="1" parent="ffzKgBnRtSAjInG-3fA--25" source="ffzKgBnRtSAjInG-3fA--26">
          <mxGeometry relative="1" as="geometry">
            <mxPoint x="50" y="135" as="targetPoint" />
            <Array as="points">
              <mxPoint x="125" y="195" />
              <mxPoint x="50" y="195" />
              <mxPoint x="50" y="140" />
            </Array>
          </mxGeometry>
        </mxCell>
        <mxCell id="ffzKgBnRtSAjInG-3fA--61" value="&lt;font style=&quot;font-size: 22px;&quot;&gt;7. Verify&amp;nbsp;&lt;/font&gt;&lt;div&gt;&lt;font style=&quot;font-size: 22px;&quot;&gt;Signature&lt;/font&gt;&lt;/div&gt;" style="edgeLabel;html=1;align=center;verticalAlign=middle;resizable=0;points=[];" vertex="1" connectable="0" parent="ffzKgBnRtSAjInG-3fA--60">
          <mxGeometry x="-0.3062" y="2" relative="1" as="geometry">
            <mxPoint x="39" y="-2" as="offset" />
          </mxGeometry>
        </mxCell>
        <mxCell id="ffzKgBnRtSAjInG-3fA--30" value="" style="endArrow=none;dashed=1;html=1;rounded=0;fillColor=#f5f5f5;strokeColor=#666666;strokeWidth=3;" edge="1" parent="1">
          <mxGeometry width="50" height="50" relative="1" as="geometry">
            <mxPoint x="368.5" y="1975" as="sourcePoint" />
            <mxPoint x="1518.5" y="1975" as="targetPoint" />
          </mxGeometry>
        </mxCell>
        <mxCell id="ffzKgBnRtSAjInG-3fA--31" value="&lt;font style=&quot;font-size: 25px;&quot;&gt;Legend&lt;/font&gt;" style="text;html=1;align=center;verticalAlign=middle;whiteSpace=wrap;rounded=0;" vertex="1" parent="1">
          <mxGeometry x="378.5" y="2025" width="130" height="30" as="geometry" />
        </mxCell>
        <mxCell id="ffzKgBnRtSAjInG-3fA--32" value="" style="endArrow=classic;startArrow=none;html=1;rounded=0;entryX=-0.001;entryY=0.598;entryDx=0;entryDy=0;entryPerimeter=0;fillColor=#f5f5f5;strokeColor=#666666;strokeWidth=4;startFill=0;" edge="1" parent="1">
          <mxGeometry width="50" height="50" relative="1" as="geometry">
            <mxPoint x="548.5" y="2025.3200000000002" as="sourcePoint" />
            <mxPoint x="981.2999999999997" y="2025" as="targetPoint" />
          </mxGeometry>
        </mxCell>
        <mxCell id="ffzKgBnRtSAjInG-3fA--33" value="&lt;font style=&quot;font-size: 22px;&quot;&gt;Usual OAuth 2.0 Interaction&lt;/font&gt;" style="edgeLabel;html=1;align=center;verticalAlign=middle;resizable=0;points=[];" vertex="1" connectable="0" parent="ffzKgBnRtSAjInG-3fA--32">
          <mxGeometry x="0.1931" relative="1" as="geometry">
            <mxPoint x="-48" as="offset" />
          </mxGeometry>
        </mxCell>
        <mxCell id="ffzKgBnRtSAjInG-3fA--34" value="" style="endArrow=classic;html=1;rounded=0;strokeWidth=4;fillColor=#d5e8d4;strokeColor=#82b366;" edge="1" parent="1">
          <mxGeometry width="50" height="50" relative="1" as="geometry">
            <mxPoint x="548.5" y="2095" as="sourcePoint" />
            <mxPoint x="978.5" y="2095" as="targetPoint" />
          </mxGeometry>
        </mxCell>
        <mxCell id="ffzKgBnRtSAjInG-3fA--35" value="&lt;span style=&quot;font-size: 22px;&quot;&gt;Proposed Interaction &lt;br&gt;for Smart Card&lt;/span&gt;" style="edgeLabel;html=1;align=center;verticalAlign=middle;resizable=0;points=[];" vertex="1" connectable="0" parent="ffzKgBnRtSAjInG-3fA--34">
          <mxGeometry x="-0.3547" relative="1" as="geometry">
            <mxPoint x="65" as="offset" />
          </mxGeometry>
        </mxCell>
        <mxCell id="ffzKgBnRtSAjInG-3fA--36" value="&lt;font style=&quot;font-size: 22px;&quot;&gt;Usual OAuth 2.0 component&lt;/font&gt;" style="rounded=1;whiteSpace=wrap;html=1;strokeWidth=3;fillColor=#f5f5f5;fontColor=#333333;strokeColor=#666666;" vertex="1" parent="1">
          <mxGeometry x="1028.5" y="2015" width="192" height="90" as="geometry" />
        </mxCell>
        <mxCell id="ffzKgBnRtSAjInG-3fA--37" value="&lt;font style=&quot;font-size: 22px;&quot;&gt;Proposed component for Smart Card&lt;/font&gt;" style="rounded=1;whiteSpace=wrap;html=1;strokeWidth=3;fillColor=#d5e8d4;strokeColor=#82b366;" vertex="1" parent="1">
          <mxGeometry x="1288.5" y="2015" width="192" height="90" as="geometry" />
        </mxCell>
        <mxCell id="ffzKgBnRtSAjInG-3fA--39" value="&lt;font style=&quot;font-size: 35px;&quot;&gt;NexU&lt;/font&gt;" style="rounded=1;whiteSpace=wrap;html=1;fillColor=#d5e8d4;strokeColor=#82b366;" vertex="1" parent="1">
          <mxGeometry x="830.6" y="1200" width="150" height="90" as="geometry" />
        </mxCell>
        <mxCell id="ffzKgBnRtSAjInG-3fA--46" style="edgeStyle=orthogonalEdgeStyle;rounded=0;orthogonalLoop=1;jettySize=auto;html=1;strokeWidth=4;strokeColor=#82B366;" edge="1" parent="1" source="ffzKgBnRtSAjInG-3fA--40" target="ffzKgBnRtSAjInG-3fA--41">
          <mxGeometry relative="1" as="geometry" />
        </mxCell>
        <mxCell id="ffzKgBnRtSAjInG-3fA--40" value="" style="outlineConnect=0;dashed=0;verticalLabelPosition=bottom;verticalAlign=top;align=center;html=1;shape=mxgraph.aws3.saml_token;fillColor=#D2D3D3;gradientColor=none;" vertex="1" parent="1">
          <mxGeometry x="409.5" y="1195" width="101" height="110" as="geometry" />
        </mxCell>
        <mxCell id="ffzKgBnRtSAjInG-3fA--41" value="" style="rounded=1;whiteSpace=wrap;html=1;fillColor=#d5e8d4;strokeColor=#82b366;" vertex="1" parent="1">
          <mxGeometry x="370" y="1376" width="180" height="170" as="geometry" />
        </mxCell>
        <mxCell id="ffzKgBnRtSAjInG-3fA--42" value="" style="image;sketch=0;aspect=fixed;html=1;points=[];align=center;fontSize=12;image=img/lib/mscae/Certificate.svg;" vertex="1" parent="1">
          <mxGeometry x="412.5" y="1386.2" width="95" height="79.8" as="geometry" />
        </mxCell>
        <mxCell id="ffzKgBnRtSAjInG-3fA--43" value="" style="shadow=0;dashed=0;html=1;strokeColor=none;fillColor=#4495D1;labelPosition=center;verticalLabelPosition=bottom;verticalAlign=top;align=center;outlineConnect=0;shape=mxgraph.veeam.2d.private_key;" vertex="1" parent="1">
          <mxGeometry x="430" y="1476" width="68.9" height="60.8" as="geometry" />
        </mxCell>
        <mxCell id="ffzKgBnRtSAjInG-3fA--52" value="&lt;div&gt;&lt;span style=&quot;font-size: 22px;&quot;&gt;Signed&lt;/span&gt;&lt;/div&gt;&lt;span style=&quot;font-size: 22px;&quot;&gt;challenge&amp;nbsp;&lt;/span&gt;" style="edgeLabel;html=1;align=center;verticalAlign=middle;resizable=0;points=[];" vertex="1" connectable="0" parent="1">
          <mxGeometry x="671.101348771824" y="1245.0017135284013" as="geometry" />
        </mxCell>
        <mxCell id="ffzKgBnRtSAjInG-3fA--57" value="&lt;span style=&quot;font-size: 22px;&quot;&gt;4. Signed&lt;/span&gt;" style="edgeLabel;html=1;align=center;verticalAlign=middle;resizable=0;points=[];" vertex="1" connectable="0" parent="1">
          <mxGeometry x="940.001348771824" y="1355.0017135284013" as="geometry">
            <mxPoint x="-103" y="-16" as="offset" />
          </mxGeometry>
        </mxCell>
        <mxCell id="ffzKgBnRtSAjInG-3fA--62" value="&lt;span style=&quot;font-size: 22px;&quot;&gt;3. Sign&lt;/span&gt;" style="edgeLabel;html=1;align=center;verticalAlign=middle;resizable=0;points=[];" vertex="1" connectable="0" parent="1">
          <mxGeometry x="1050.001348771824" y="1355.0017135284013" as="geometry">
            <mxPoint x="-103" y="-16" as="offset" />
          </mxGeometry>
        </mxCell>
        <mxCell id="ffzKgBnRtSAjInG-3fA--67" value="" style="endArrow=classic;html=1;rounded=0;exitX=0.5;exitY=0;exitDx=0;exitDy=0;strokeWidth=5;strokeColor=#82B366;" edge="1" parent="1" source="ffzKgBnRtSAjInG-3fA--26">
          <mxGeometry width="50" height="50" relative="1" as="geometry">
            <mxPoint x="920" y="1695" as="sourcePoint" />
            <mxPoint x="990" y="1525" as="targetPoint" />
          </mxGeometry>
        </mxCell>
        <mxCell id="ffzKgBnRtSAjInG-3fA--68" value="&lt;span style=&quot;font-size: 22px;&quot;&gt;2. Challenge&lt;/span&gt;" style="edgeLabel;html=1;align=center;verticalAlign=middle;resizable=0;points=[];" vertex="1" connectable="0" parent="1">
          <mxGeometry x="839.9974183609622" y="1604.9993885746464" as="geometry">
            <mxPoint x="142" y="1" as="offset" />
          </mxGeometry>
        </mxCell>
        <mxCell id="ffzKgBnRtSAjInG-3fA--69" value="" style="endArrow=classic;html=1;rounded=0;entryX=0.5;entryY=0;entryDx=0;entryDy=0;strokeWidth=5;strokeColor=#82B366;exitX=0.109;exitY=1.003;exitDx=0;exitDy=0;exitPerimeter=0;" edge="1" parent="1" source="ffzKgBnRtSAjInG-3fA--1" target="ffzKgBnRtSAjInG-3fA--26">
          <mxGeometry width="50" height="50" relative="1" as="geometry">
            <mxPoint x="850" y="1555" as="sourcePoint" />
            <mxPoint x="1001" y="1540" as="targetPoint" />
          </mxGeometry>
        </mxCell>
        <mxCell id="ffzKgBnRtSAjInG-3fA--70" value="&lt;span style=&quot;font-size: 22px;&quot;&gt;5. Send Signed&lt;/span&gt;&lt;div&gt;&lt;span style=&quot;font-size: 22px;&quot;&gt;Challenge&lt;/span&gt;&lt;/div&gt;" style="edgeLabel;html=1;align=center;verticalAlign=middle;resizable=0;points=[];" vertex="1" connectable="0" parent="1">
          <mxGeometry x="830.0002960666327" y="1605.0017967986298" as="geometry" />
        </mxCell>
      </root>
    </mxGraphModel>
  </diagram>
</mxfile>
